<?xml version="1.0" encoding="UTF-8" standalone="no"?>
<!-- Created with Inkscape (http://www.inkscape.org/) -->

<svg
   version="1.1"
   id="svg2676"
   xml:space="preserve"
   width="682.66669"
   height="682.66669"
   viewBox="0 0 682.66669 682.66669"
   xmlns="http://www.w3.org/2000/svg"
   xmlns:svg="http://www.w3.org/2000/svg"><defs
     id="defs2680"><clipPath
       clipPathUnits="userSpaceOnUse"
       id="clipPath2690"><path
         d="M 0,512 H 512 V 0 H 0 Z"
         id="path2688" /></clipPath></defs><g
     id="g2682"
     transform="matrix(1.3333333,0,0,-1.3333333,0,682.66667)"><g
       id="g2684"><g
         id="g2686"
         clip-path="url(#clipPath2690)"><g
           id="g2692"
           transform="translate(256,158.5)"><path
             d="M 0,0 C -53.848,0 -97.5,43.652 -97.5,97.5 -97.5,151.348 -53.848,195 0,195 53.848,195 97.5,151.348 97.5,97.5 97.5,43.652 53.848,0 0,0 m 248.5,52.5 v 90 l -53.26,8.876 c -4.479,16.27 -10.933,31.719 -19.095,46.073 l 31.391,43.947 -63.64,63.64 -43.948,-31.391 C 85.595,281.807 70.146,288.261 53.877,292.74 L 45,346 h -90 l -8.876,-53.26 c -16.27,-4.479 -31.719,-10.933 -46.073,-19.095 l -43.947,31.391 -63.64,-63.64 31.391,-43.947 c -8.162,-14.354 -14.616,-29.803 -19.095,-46.073 L -248.5,142.5 v -90 l 53.26,-8.876 c 4.479,-16.27 10.933,-31.719 19.095,-46.073 l -31.391,-43.947 63.64,-63.64 43.947,31.391 c 14.354,-8.162 29.803,-14.616 46.073,-19.095 L -45,-151 h 90 l 8.877,53.26 c 16.265,4.478 31.695,10.955 46.046,19.114 l 43.973,-31.41 63.64,63.64 -31.41,43.974 c 8.158,14.35 14.636,29.78 19.114,46.046 z"
             style="fill:#acd5df;fill-opacity:1;fill-rule:nonzero;stroke:none"
             id="path2694" /></g><g
           id="g2696"
           transform="translate(257.8398,428.4902)"><path
             d="m 0,0 c 94.42,-0.99 170.66,-77.83 170.66,-172.49 0,-94.66 -76.24,-171.5 -170.66,-172.49 l 110.66,172.49 z"
             style="fill:#83a3ab;fill-opacity:1;fill-rule:nonzero;stroke:none"
             id="path2698" /></g><g
           id="g2700"
           transform="translate(338.5,256)"><path
             d="M 0,0 C 0,45.56 -36.94,82.5 -82.5,82.5 -128.06,82.5 -165,45.56 -165,0 c 0,-45.56 36.94,-82.5 82.5,-82.5 C -36.94,-82.5 0,-45.56 0,0 M -80.66,172.49 C -2.81,171.29 60,94.53 60,0 60,-94.53 -2.81,-171.29 -80.66,-172.49 c -0.61,-0.01 -1.23,-0.01 -1.84,-0.01 -95.27,0 -172.5,77.23 -172.5,172.5 0,95.27 77.23,172.5 172.5,172.5 0.61,0 1.23,0 1.84,-0.01"
             style="fill:#93b7c0;fill-opacity:1;fill-rule:nonzero;stroke:none"
             id="path2702" /></g><g
           id="g2704"
           transform="translate(256,188.5)"><path
             d="M 0,0 C -37.279,0 -67.5,30.221 -67.5,67.5 -67.5,104.779 -37.279,135 0,135 37.279,135 67.5,104.779 67.5,67.5 67.5,30.221 37.279,0 0,0 M 0,165 C -53.848,165 -97.5,121.348 -97.5,67.5 -97.5,13.652 -53.848,-30 0,-30 53.848,-30 97.5,13.652 97.5,67.5 97.5,121.348 53.848,165 0,165"
             style="fill:#acd5df;fill-opacity:1;fill-rule:nonzero;stroke:none"
             id="path2706" /></g><g
           id="g2708"
           transform="translate(323.5,256)"><path
             d="m 0,0 c 0,-37.279 -30.221,-67.5 -67.5,-67.5 -37.279,0 -67.5,30.221 -67.5,67.5 0,37.279 30.221,67.5 67.5,67.5 C -30.221,67.5 0,37.279 0,0 Z"
             style="fill:none;stroke:#000000;stroke-width:15;stroke-linecap:round;stroke-linejoin:round;stroke-miterlimit:10;stroke-dasharray:none;stroke-opacity:1"
             id="path2710" /></g><g
           id="g2712"
           transform="translate(353.5,256)"><path
             d="m 0,0 c 0,-53.848 -43.652,-97.5 -97.5,-97.5 -53.848,0 -97.5,43.652 -97.5,97.5 0,53.848 43.652,97.5 97.5,97.5 C -43.652,97.5 0,53.848 0,0 Z"
             style="fill:none;stroke:#000000;stroke-width:15;stroke-linecap:round;stroke-linejoin:round;stroke-miterlimit:10;stroke-dasharray:none;stroke-opacity:1"
             id="path2714" /></g><g
           id="g2716"
           transform="translate(504.5,211)"><path
             d="m 0,0 v 90 l -53.26,8.876 c -4.479,16.27 -10.933,31.719 -19.095,46.073 l 31.391,43.947 -63.64,63.64 -43.948,-31.391 c -14.353,8.162 -29.802,14.616 -46.071,19.095 l -8.877,53.26 h -90 l -8.876,-53.26 c -16.27,-4.479 -31.719,-10.933 -46.073,-19.095 l -43.947,31.391 -63.64,-63.64 31.391,-43.947 c -8.162,-14.354 -14.616,-29.803 -19.095,-46.073 L -497,90 V 0 l 53.26,-8.876 c 4.479,-16.27 10.933,-31.719 19.095,-46.073 l -31.391,-43.947 63.64,-63.64 43.947,31.391 c 14.354,-8.162 29.803,-14.616 46.073,-19.095 l 8.876,-53.26 h 90 l 8.877,53.26 c 16.265,4.478 31.695,10.955 46.046,19.114 l 43.973,-31.41 63.64,63.64 -31.41,43.974 c 8.158,14.35 14.636,29.78 19.114,46.046 z"
             style="fill:none;stroke:#000000;stroke-width:15;stroke-linecap:round;stroke-linejoin:round;stroke-miterlimit:10;stroke-dasharray:none;stroke-opacity:1"
             id="path2718" /></g><g
           id="g2720"
           transform="translate(125.0771,368.312)"><path
             d="m 0,0 c -25.913,-30.179 -41.577,-69.415 -41.577,-112.312 0,-95.269 77.231,-172.5 172.5,-172.5 95.269,0 172.5,77.231 172.5,172.5 0,95.269 -77.231,172.5 -172.5,172.5 -41.57,0 -79.703,-14.707 -109.487,-39.198"
             style="fill:none;stroke:#000000;stroke-width:15;stroke-linecap:round;stroke-linejoin:round;stroke-miterlimit:10;stroke-dasharray:none;stroke-opacity:1"
             id="path2722" /></g></g></g></g></svg>
