<svg height="512" viewBox="0 0 42 58" width="512" xmlns="http://www.w3.org/2000/svg"><g id="Page-1" fill="none" fill-rule="evenodd"><g id="007---Code-File" fill-rule="nonzero"><path id="Shape" d="m42 56c-.0032948 1.1032019-.8967981 1.9967052-2 2h-38c-1.10320187-.0032948-1.9967052-.8967981-2-2v-54c.0032948-1.10320187.89679813-1.9967052 2-2h32l8 8z" fill="#547580"/><path id="Shape" d="m34 0v6c0 1.1045695.8954305 2 2 2h6z" fill="#35495e"/><path id="Shape" d="m7 13c-.26519481-.0000566-.51950727-.1054506-.707-.293l-3-3c-.39038194-.39049985-.39038194-1.02350015 0-1.414l3-3c.25107447-.25995658.62287789-.3642126.97250732-.27269716.34962944.09151544.6226744.3645604.71418984.71418984.09151544.34962943-.01274058.72143285-.27269716.97250732l-2.293 2.293 2.293 2.293c.28590792.2859943.37142191.7160366.21667798 1.0896546-.15474393.3736179-.51928208.6172591-.92367798.6173454z" fill="#9fc9d3"/><path id="Shape" d="m19 13c-.4043959-.0000863-.7689341-.2437275-.923678-.6173454-.1547439-.373618-.0692299-.8036603.216678-1.0896546l2.293-2.293-2.293-2.293c-.3789722-.39237889-.3735524-1.01608478.0121814-1.40181858.3857338-.38573379 1.0094397-.39115363 1.4018186-.01218142l3 3c.3903819.39049985.3903819 1.02350015 0 1.414l-3 3c-.1874927.1875494-.4418052.2929434-.707.293z" fill="#9fc9d3"/><path id="Shape" d="m11 13c-.3687074-.0003134-.7073293-.2034902-.88111-.5286756-.17378075-.3251854-.15452283-.719615.05011-1.0263244l4-6c.1982824-.29724497.5400812-.46612825.8966441-.44303314.3565629.02309512.6737195.23465992.832.555.1582805.32034009.1336383.70078817-.0646441.99803314l-4 6c-.1857211.2783647-.4983673.4453846-.833.445z" fill="#9fc9d3"/><g fill="#fb7b76"><path id="Shape" d="m6 18h-2c-.55228475 0-1-.4477153-1-1s.44771525-1 1-1h2c.55228475 0 1 .4477153 1 1s-.44771525 1-1 1z"/><path id="Shape" d="m6 23h-2c-.55228475 0-1-.4477153-1-1s.44771525-1 1-1h2c.55228475 0 1 .4477153 1 1s-.44771525 1-1 1z"/><path id="Shape" d="m6 28h-2c-.55228475 0-1-.4477153-1-1s.44771525-1 1-1h2c.55228475 0 1 .4477153 1 1s-.44771525 1-1 1z"/><path id="Shape" d="m6 33h-2c-.55228475 0-1-.4477153-1-1s.44771525-1 1-1h2c.55228475 0 1 .4477153 1 1s-.44771525 1-1 1z"/><path id="Shape" d="m6 38h-2c-.55228475 0-1-.4477153-1-1s.44771525-1 1-1h2c.55228475 0 1 .4477153 1 1s-.44771525 1-1 1z"/><path id="Shape" d="m6 43h-2c-.55228475 0-1-.4477153-1-1s.44771525-1 1-1h2c.55228475 0 1 .4477153 1 1s-.44771525 1-1 1z"/><path id="Shape" d="m6 48h-2c-.55228475 0-1-.4477153-1-1s.44771525-1 1-1h2c.55228475 0 1 .4477153 1 1s-.44771525 1-1 1z"/><path id="Shape" d="m6 53h-2c-.55228475 0-1-.4477153-1-1s.44771525-1 1-1h2c.55228475 0 1 .4477153 1 1s-.44771525 1-1 1z"/></g><path id="Shape" d="m24 18h-14c-.55228475 0-1-.4477153-1-1s.44771525-1 1-1h14c.5522847 0 1 .4477153 1 1s-.4477153 1-1 1z" fill="#9fc9d3"/><path id="Shape" d="m21 23h-11c-.55228475 0-1-.4477153-1-1s.44771525-1 1-1h11c.5522847 0 1 .4477153 1 1s-.4477153 1-1 1z" fill="#9fc9d3"/><path id="Shape" d="m29 28h-19c-.55228475 0-1-.4477153-1-1s.44771525-1 1-1h19c.5522847 0 1 .4477153 1 1s-.4477153 1-1 1z" fill="#f0c419"/><path id="Shape" d="m36 23h-11c-.5522847 0-1-.4477153-1-1s.4477153-1 1-1h11c.5522847 0 1 .4477153 1 1s-.4477153 1-1 1z" fill="#9fc9d3"/><path id="Shape" d="m38 28h-5c-.5522847 0-1-.4477153-1-1s.4477153-1 1-1h5c.5522847 0 1 .4477153 1 1s-.4477153 1-1 1z" fill="#f0c419"/><path id="Shape" d="m17 33h-7c-.55228475 0-1-.4477153-1-1s.44771525-1 1-1h7c.5522847 0 1 .4477153 1 1s-.4477153 1-1 1z" fill="#9fc9d3"/><path id="Shape" d="m22 38h-12c-.55228475 0-1-.4477153-1-1s.44771525-1 1-1h12c.5522847 0 1 .4477153 1 1s-.4477153 1-1 1z" fill="#f0c419"/><path id="Shape" d="m29 43h-19c-.55228475 0-1-.4477153-1-1s.44771525-1 1-1h19c.5522847 0 1 .4477153 1 1s-.4477153 1-1 1z" fill="#f0c419"/><path id="Shape" d="m15 48h-5c-.55228475 0-1-.4477153-1-1s.44771525-1 1-1h5c.5522847 0 1 .4477153 1 1s-.4477153 1-1 1z" fill="#9fc9d3"/><path id="Shape" d="m20 53h-10c-.55228475 0-1-.4477153-1-1s.44771525-1 1-1h10c.5522847 0 1 .4477153 1 1s-.4477153 1-1 1z" fill="#f0c419"/><path id="Shape" d="m31 33h-10c-.5522847 0-1-.4477153-1-1s.4477153-1 1-1h10c.5522847 0 1 .4477153 1 1s-.4477153 1-1 1z" fill="#9fc9d3"/><path id="Shape" d="m38 33h-3c-.5522847 0-1-.4477153-1-1s.4477153-1 1-1h3c.5522847 0 1 .4477153 1 1s-.4477153 1-1 1z" fill="#9fc9d3"/><path id="Shape" d="m36 43h-3c-.5522847 0-1-.4477153-1-1s.4477153-1 1-1h3c.5522847 0 1 .4477153 1 1s-.4477153 1-1 1z" fill="#9fc9d3"/><path id="Shape" d="m34 48h-15c-.5522847 0-1-.4477153-1-1s.4477153-1 1-1h15c.5522847 0 1 .4477153 1 1s-.4477153 1-1 1z" fill="#9fc9d3"/></g></g></svg>