<svg id="Layer_1" enable-background="new 0 0 512 512" height="512" viewBox="0 0 512 512" width="512" xmlns="http://www.w3.org/2000/svg"><g clip-rule="evenodd" fill-rule="evenodd"><g><circle cx="256" cy="256" fill="#3dc285" r="246"/><path d="m398.252 266.733-103.656 59.846-103.655 59.845c-3.941 2.275-8.452 2.275-12.393 0s-6.196-6.182-6.196-10.733v-119.691-119.691c0-4.55 2.256-8.457 6.196-10.732 3.941-2.275 8.452-2.275 12.393 0l103.655 59.845 103.656 59.846c3.941 2.275 6.196 6.182 6.196 10.733 0 4.549-2.255 8.456-6.196 10.732z" fill="#e9eef2"/></g><path d="m255.998 492c-130.126 0-235.998-105.872-235.998-235.998 0-130.13 105.872-235.998 235.998-235.998 130.13 0 236.002 105.868 236.002 235.998 0 130.126-105.872 235.998-236.002 235.998zm0-491.999c-141.157 0-255.997 114.84-255.997 256.001s114.841 255.997 255.997 255.997c141.161 0 256.001-114.836 256.001-255.997s-114.84-256.001-256.001-256.001zm137.254 258.073c.849-.491 1.189-1.09 1.189-2.071s-.34-1.585-1.189-2.076l-207.313-119.686c-.429-.245-.807-.373-1.198-.373-.392 0-.769.127-1.203.373-.849.486-1.189 1.09-1.189 2.071v239.376c0 .981.34 1.585 1.189 2.076.854.486 1.552.486 2.402 0zm9.997-21.467-207.309-119.69c-7.011-4.048-15.38-4.048-22.4 0-7.011 4.048-11.191 11.299-11.191 19.395v239.376c0 8.105 4.18 15.352 11.191 19.395 3.51 2.029 7.36 3.038 11.2 3.038 3.85 0 7.69-1.009 11.2-3.038l207.309-119.69c7.011-4.048 11.191-11.294 11.191-19.39s-4.18-15.348-11.191-19.396z"/></g></svg>