<svg id="Layer_1" height="512" viewBox="0 0 512 512" width="512" xmlns="http://www.w3.org/2000/svg" data-name="Layer 1"><circle cx="255.983" cy="256.001" fill="#ed2f2f" r="235" transform="matrix(.707 -.707 .707 .707 -106.044 255.988)"/><path d="m166.484 166.502h178.999v178.999h-178.999z" fill="#edeff3"/><path d="m176.509 335.502h158.983v-159h-158.983zm168.999 20h-179.016c-5.528 0-10.016-4.481-10.016-10.001v-179c0-5.52 4.488-9.999 10.016-9.999h179.015c5.48 0 9.969 4.479 9.969 9.999v179c0 5.52-4.488 10.001-9.969 10.001zm76.397 76.93c-2.599 0-5.15-.971-7.087-2.92-3.922-3.91-3.922-10.24 0-14.15l.52-.511c3.874-3.909 10.205-3.929 14.127-.04 3.921 3.902 3.921 10.232.047 14.151l-.567.55c-1.937 1.949-4.488 2.92-7.04 2.92zm-165.928 68.57c-65.436 0-126.95-25.491-173.251-71.761-46.255-46.27-71.72-107.799-71.72-173.24s25.466-126.97 71.72-173.239c46.3-46.28 107.815-71.764 173.25-71.764s126.95 25.484 173.251 71.763c46.254 46.269 71.767 107.8 71.767 173.239 0 47.601-13.654 93.762-39.545 133.482-3.024 4.629-9.213 5.939-13.843 2.929-4.63-3.019-5.906-9.209-2.929-13.84 23.765-36.47 36.332-78.849 36.332-122.571 0-124.069-100.965-225-225.033-225s-224.985 100.932-224.985 225.001 100.918 225.001 224.986 225.001c43.703 0 86.13-12.55 122.603-36.289 4.63-3.01 10.82-1.701 13.796 2.929 3.024 4.63 1.701 10.82-2.929 13.84-39.686 25.851-85.846 39.521-133.47 39.521z" fill-rule="evenodd"/></svg>